# AST/ASF file generated using VICON BodyLanguage
# -----------------------------------------------
:version 1.10
:name VICON
:units
  mass 1.0
  length 0.45
  angle deg
:documentation
   .ast/.asf automatically generated from VICON data using
   VICON BodyBuilder and BodyLanguage model FoxedUp or BRILLIANT.MOD
:root
   order TX TY TZ RX RY RZ
   axis XYZ
   position 0 0 0  
   orientation 0 0 0 
:bonedata
  begin
     id 1 
     name lhipjoint
     direction 0.643272 -0.706573 0.294883 
     length 2.58915 
     axis 0 0 0  XYZ
  end
  begin
     id 2 
     name lfemur
     direction 0.34202 -0.939693 0  
     length 7.06802  
     axis 0 0 20  XYZ
    dof rx ry rz
    limits (-160.0 20.0)
           (-70.0 70.0)
           (-60.0 70.0)
  end
  begin
     id 3 
     name ltibia
     direction 0.34202 -0.939693 0   
     length 7.94147   
     axis 0 0 20   XYZ
    dof rx
    limits (-10.0 170.0)
  end
  begin
     id 4 
     name lfoot
     direction 0.0435058 -0.119531 0.991877   
     length 1.8399   
     axis -90 7.62852e-016 20   XYZ
    dof rx rz
    limits (-45.0 90.0)
           (-70.0 20.0)
  end
  begin
     id 5 
     name ltoes
     direction 1.53505e-011 -4.22157e-011 1   
     length 0.934412   
     axis -90 7.62852e-016 20   XYZ
    dof rx
    limits (-90.0 20.0)
  end
  begin
     id 6 
     name rhipjoint
     direction -0.636801 -0.711547 0.296959   
     length 2.57105  
     axis 0 0 0  XYZ 
  end
  begin
     id 7 
     name rfemur
     direction -0.34202 -0.939693 0   
     length 7.03285   
     axis 0 0 -20   XYZ
    dof rx ry rz
    limits (-160.0 20.0)
           (-70.0 70.0)
           (-70.0 60.0)
  end
  begin
     id 8 
     name rtibia
     direction -0.34202 -0.939693 0   
     length 7.99111   
     axis 0 0 -20   XYZ
    dof rx
    limits (-10.0 170.0)
 end
 begin
     id 9 
     name rfoot
     direction -0.0783088 -0.215152 0.973436   
     length 1.98785  
     axis -90 -7.62852e-016 -20   XYZ
    dof rx rz
    limits (-45.0 90.0)
           (-20.0 70.0)
  end
  begin
     id 10 
     name rtoes
     direction -1.53606e-011 -4.21943e-011 1   
     length 1.001   
     axis -90 -7.62852e-016 -20   XYZ
    dof rx
    limits (-90.0 20.0)
  end
  begin
     id 11 
     name lowerback
     direction 0.00141527 0.998403 -0.0564763   
     length 2.30486   
     axis 0 0 0   XYZ
    dof rx ry rz
    limits (-20.0 45.0)
           (-30.0 30.0)
           (-30.0 30.0)
  end
  begin
     id 12 
     name upperback
     direction 0.0125137 0.999915 0.00361315   
     length 2.30697   
     axis 0 0 0   XYZ
    dof rx ry rz
    limits (-20.0 45.0)
           (-30.0 30.0)
           (-30.0 30.0)
  end
  begin
     id 13 
     name thorax
     direction 0.0136417 0.999471 0.0295116   
     length 2.31005   
     axis 0 0 0   XYZ
    dof rx ry rz
    limits (-20.0 45.0)
           (-30.0 30.0)
           (-30.0 30.0)
  end
  begin
     id 14 
     name lowerneck
     direction 0.0766806 0.997047 0.00422047   
     length 1.68825   
     axis 0 0 0   XYZ
    dof rx ry rz
    limits (-20.0 45.0)
           (-30.0 30.0)
           (-30.0 30.0)
  end
  begin
     id 15 
     name upperneck
     direction -0.143512 0.985106 -0.0947088   
     length 1.69772   
     axis 0 0 0   XYZ
    dof rx ry rz
    limits (-20.0 45.0)
           (-30.0 30.0)
           (-30.0 30.0)
  end
  begin
     id 16
     name head
     direction -0.0539128 0.997849 -0.0372864  
     length 1.71187  
     axis 0 0 0   XYZ
    dof rx ry rz
    limits (-20.0 45.0)
           (-30.0 30.0)
           (-30.0 30.0)
  end
  begin
     id 17 
     name lclavicle
     direction 0.978251 0.207416 -0.00165765  
     length 3.35399  
     axis 0 0 0   XYZ
    dof ry rz
    limits (-20.0 10.0)
           (0.0 20.0)
  end
  begin
     id 18 
     name lhumerus
     direction 1 -4.48966e-011 -1.32191e-028   
     length 5.70706   
     axis 180 -30 -90   XYZ
    dof rx ry rz
    limits (-60.0 90.0)
           (-90.0 90.0)
           (-90.0 90.0)
  end
  begin
     id 19
     name lradius
     direction 1 -4.48976e-011 9.36106e-027   
     length 3.33243   
     axis 180 -30 -90   XYZ
    dof rx
    limits (-10.0 170.0)
  end
  begin
     id 20
     name lwrist
     direction 1 -4.48976e-011 1.1555e-026   
     length 1.66621   
     axis -5.7412e-015 90 90   XYZ
    dof ry
    limits (-180.0 0.0)
 end
  begin
     id 21 
     name lhand
     direction 1 -4.48939e-011 2.31113e-026   
     length 0.792687   
     axis -1.47463e-014 90 90   XYZ
    dof rx rz
    limits (-90.0 90.0)
           (-45.0 45.0)
  end
  begin
     id 22 
     name lfingers
     direction 1 -4.48866e-011 4.62274e-026   
     length 0.639085   
     axis -2.94925e-014 90 90   XYZ
    dof rx
    limits (0.0 90.0)
  end
  begin
     id 23
     name lthumb
     direction 0.707107 -6.34847e-011 0.707107   
     length 0.917601   
     axis -90 45 -6.68868e-015   XYZ
    dof rx rz
    limits (-45.0 45.0)
           (-45.0 45.0)
  end
  begin
     id 24 
     name rclavicle
     direction -0.981813 0.185514 0.0403428   
     length 3.47271  
     axis 0 0 0   XYZ 
    dof ry rz
    limits (-10.0 20.0)
           (-20.0 0.0)
  end
  begin
     id 25 
     name rhumerus
     direction -1 -4.48972e-011 -6.58544e-029  
     length 5.88176   
     axis 180 30 90   XYZ
    dof rx ry rz
    limits (-90.0 60.0)
           (-90.0 90.0)
           (-90.0 90.0)
  end
  begin
     id 26 
     name rradius
     direction -1 -4.48964e-011 8.36306e-027   
     length 3.28156   
     axis 180 30 90   XYZ
    dof rx
    limits (-10.0 170.0)
  end
  begin
     id 27 
     name rwrist
     direction -1 -4.48903e-011 1.15562e-026   
     length 1.64078   
     axis -5.7412e-015 -90 -90   XYZ
    dof ry
    limits (-180.0 0.0)
  end
  begin
     id 28
     name rhand
     direction -1 -4.49055e-011 2.31074e-026   
     length 0.863125   
     axis -1.47463e-014 -90 -90   XYZ
    dof rx rz
    limits (-90.0 90.0)
           (-45.0 45.0)
  end
  begin
     id 29
     name rfingers
     direction -1 -4.48994e-011 4.62188e-026   
     length 0.695873   
     axis -2.94925e-014 -90 -90   XYZ
    dof rx
    limits (0.0 90.0)
  end
  begin
     id 30
     name rthumb
     direction -0.707107 -6.35058e-011 0.707107   
     length 0.999139   
     axis -90 -45 6.68868e-015   XYZ
    dof rx rz
    limits (-45.0 45.0)
           (-45.0 45.0)
  end
:hierarchy
  begin
    root lhipjoint rhipjoint lowerback
    lhipjoint lfemur
    lfemur ltibia
    ltibia lfoot
    lfoot ltoes
    rhipjoint rfemur
    rfemur rtibia
    rtibia rfoot
    rfoot rtoes
    lowerback upperback
    upperback thorax
    thorax lowerneck lclavicle rclavicle
    lowerneck upperneck
    upperneck head
    lclavicle lhumerus
    lhumerus lradius
    lradius lwrist
    lwrist lhand lthumb
    lhand lfingers
    rclavicle rhumerus
    rhumerus rradius
    rradius rwrist
    rwrist rhand rthumb
    rhand rfingers
  end

#!OML:ASF \\Waltz\H\Terrain\Patient Classification 1\Animal2\Wednesday\Animal2.ASF
:FULLY-SPECIFIED
:DEGREES
1772
root 1.32022 16.7444 10.6664 -2.86204 -13.5247 24.8083
lowerback 6.34057 -1.9574 -1.99062
upperback -2.77178 -3.33794 -7.61159
thorax -6.85579 -1.78548 -6.54094
lowerneck 20.8575 20.4668 14.9279
upperneck -18.8663 27.4512 -31.118
head -2.03862 15.8406 -12.9635
rclavicle 1.91579e-014 5.08889e-014
rhumerus 35.2098 46.226 -37.399
rradius 96.1714
rwrist -19.8741
rhand -18.4492 19.67
rfingers 7.12502
rthumb 7.83681 -10.1648
lclavicle 1.91579e-014 5.08889e-014
lhumerus 30.0588 13.7779 26.1672
lradius 78.3097
lwrist -7.19124
lhand -53.7249 21.6755
lfingers 7.12502
lthumb -26.1599 49.8931
rfemur -28.4236 17.4878 -11.9352
rtibia 65.1774
rfoot -31.0862 -3.57107
rtoes 20.1929
lfemur 1.10645 1.22461 -29.2982
ltibia 15.6366
lfoot -16.4055 -14.5515
ltoes -29.4801
1773
root 1.35854 16.7648 10.6854 -2.84235 -13.5835 24.9078
lowerback 6.37054 -1.81999 -1.86598
upperback -2.7371 -3.14295 -7.65781
thorax -6.82558 -1.69497 -6.68752
lowerneck 20.409 20.4982 15.084
upperneck -18.3186 27.6004 -31.0821
head -1.75893 15.8679 -12.8175
rclavicle 2.21893e-014 3.81667e-014
rhumerus 34.8513 45.9712 -37.9777
rradius 96.0578
rwrist -19.7386
rhand -18.2585 19.9515
rfingers 7.12502
rthumb 8.02089 -9.87627
lclavicle 2.21893e-014 3.81667e-014
lhumerus 30.2138 13.8324 26.2369
lradius 78.2346
lwrist -7.26724
lhand -53.4786 22.4578
lfingers 7.12502
lthumb -25.9241 50.7102
rfemur -29.0873 17.455 -12.3685
rtibia 66.0225
rfoot -30.161 -1.8802
rtoes 25.3362
lfemur 1.51466 1.67495 -29.4648
ltibia 14.7461
lfoot -15.9102 -15.1813
ltoes -29.9134
1774
root 1.39501 16.7842 10.6872 -2.7315 -13.6374 24.8869
lowerback 6.58406 -1.77973 -1.78675
upperback -2.78957 -3.0964 -7.61525
thorax -7.00172 -1.67581 -6.69006
lowerneck 19.3347 20.7465 15.3291
upperneck -17.0496 28.1617 -30.7505
head -1.12124 16.0112 -12.3615
rclavicle 4.60932e-014 -4.13472e-014
rhumerus 34.7811 45.9365 -38.2789
rradius 95.8862
rwrist -19.6222
rhand -18.3868 20.2331
rfingers 7.12502
rthumb 7.89702 -9.59944
lclavicle 4.60932e-014 -4.13472e-014
lhumerus 30.1417 13.9903 26.1797
lradius 78.0826
lwrist -7.48975
lhand -53.6166 22.9724
lfingers 7.12502
lthumb -26.0562 51.2054
rfemur -29.9578 17.282 -12.5954
rtibia 66.9923
rfoot -28.7099 -1.37542
rtoes 27.4052
lfemur 1.72925 1.91654 -29.5006
ltibia 14.0044
lfoot -15.4107 -15.6538
ltoes -30.1463
1775
root 1.43207 16.7922 10.6845 -2.73426 -13.6395 25.0514
lowerback 6.70005 -1.81194 -1.82987
upperback -2.67005 -3.14772 -7.68962
thorax -6.94906 -1.69978 -6.73641
lowerneck 20.1199 20.6333 15.0908
upperneck -18.502 27.7323 -31.2511
head -1.70249 15.9384 -12.8126
rclavicle -2.05494e-014 3.81667e-014
rhumerus 35.1573 45.8221 -38.2905
rradius 95.7967
rwrist -19.4512
rhand -18.9878 20.1138
rfingers 7.12502
rthumb 7.31688 -9.73972
lclavicle -2.05494e-014 3.81667e-014
lhumerus 30.0504 14.3649 25.7669
lradius 77.8544
lwrist -7.89969
lhand -54.1167 24.045
lfingers 7.12502
lthumb -26.535 52.2066
rfemur -30.8069 16.86 -12.9398
rtibia 68.0877
rfoot -26.9299 -2.47164
rtoes 24.2936
lfemur 1.84577 2.02893 -29.7289
ltibia 13.5179
lfoot -15.0021 -15.8526
ltoes -30.733
1776
root 1.46621 16.7913 10.6962 -2.87983 -13.6499 25.502
lowerback 6.53618 -1.7915 -2.03998
upperback -2.34528 -3.11671 -7.90284
thorax -6.50656 -1.67453 -6.85112
lowerneck 19.825 20.6991 14.922
upperneck -18.7941 27.6909 -31.4205
head -1.74323 15.9351 -12.8335
rclavicle 2.61402e-014 -3.10104e-014
rhumerus 35.6217 45.4238 -38.2505
rradius 95.8422
rwrist -19.625
rhand -19.3042 19.7713
rfingers 7.12502
rthumb 7.01148 -10.0926
lclavicle 2.61402e-014 -3.10104e-014
lhumerus 30.2056 14.9372 25.4637
lradius 77.6931
lwrist -7.95531
lhand -54.15 24.6772
lfingers 7.12502
lthumb -26.5669 52.8339
rfemur -31.562 16.3719 -13.6422
rtibia 69.2098
rfoot -25.377 -2.99719
rtoes 19.8972
lfemur 2.05541 2.36038 -30.2756
ltibia 13.1267
lfoot -14.7685 -16.0123
ltoes -31.1507
1777
root 1.49529 16.7915 10.7098 -3.00175 -13.5733 25.7402
lowerback 6.56837 -1.74653 -2.20974
upperback -2.20213 -3.06093 -7.90943
thorax -6.35721 -1.6364 -6.76494
lowerneck 19.5075 20.7598 14.8796
upperneck -18.5135 27.7833 -31.4903
head -1.58537 15.9673 -12.7572
rclavicle 2.27111e-014 1.11319e-014
rhumerus 35.6408 45.2909 -38.2188
rradius 95.822
rwrist -19.8908
rhand -19.2824 19.8064
rfingers 7.12502
rthumb 7.03252 -10.0568
lclavicle 2.27111e-014 1.11319e-014
lhumerus 30.2414 15.3209 25.4778
lradius 77.6462
lwrist -7.84044
lhand -53.936 23.8485
lfingers 7.12502
lthumb -26.3621 52.0361
rfemur -32.1946 15.8336 -14.0688
rtibia 70.288
rfoot -24.1643 -2.9457
rtoes 15.8606
lfemur 2.50346 2.80739 -30.6168
ltibia 12.4353
lfoot -14.4909 -16.3566
ltoes -31.2643
1778
root 1.5179 16.8012 10.7178 -3.07371 -13.4296 25.8741
lowerback 6.76276 -1.69822 -2.38448
upperback -2.2461 -3.02572 -7.8648
thorax -6.50018 -1.61095 -6.6176
lowerneck 19.7077 20.6887 15.0172
upperneck -18.3887 27.7592 -31.5823
head -1.54936 15.9678 -12.8205
rclavicle 4.53229e-014 7.15625e-014
rhumerus 35.2831 45.3787 -38.4465
rradius 95.7012
rwrist -19.8688
rhand -19.3244 20.0587
rfingers 7.12502
rthumb 6.99202 -9.80586
lclavicle 4.53229e-014 7.15625e-014
lhumerus 30.1448 15.3353 25.3883
lradius 77.5674
lwrist -7.90024
lhand -54.2571 22.7244
lfingers 7.12502
lthumb -26.6694 50.8656
rfemur -32.9202 15.1916 -14.3474
rtibia 71.3518
rfoot -23.0614 -2.48281
rtoes 15.3081
lfemur 3.05091 3.08573 -30.8532
ltibia 11.5238
lfoot -14.1021 -16.6454
ltoes -31.4609
1779
root 1.53377 16.8149 10.7272 -3.14293 -13.3848 26.0568
lowerback 6.88955 -1.63665 -2.56593
upperback -2.28265 -2.97181 -7.86404
thorax -6.59752 -1.57698 -6.51827
lowerneck 19.9322 20.5885 15.0949
upperneck -18.2575 27.6764 -31.6822
head -1.53709 15.945 -12.8958
rclavicle -2.73329e-015 3.18055e-014
rhumerus 34.9422 45.4052 -38.7352
rradius 95.7148
rwrist -19.9052
rhand -19.2185 20.2736
rfingers 7.12502
rthumb 7.09422 -9.58748
lclavicle -2.73329e-015 3.18055e-014
lhumerus 30.0219 15.2673 25.2946
lradius 77.455
lwrist -8.02173
lhand -54.2945 23.088
lfingers 7.12502
lthumb -26.7052 51.2237
rfemur -33.7773 14.5418 -14.6786
rtibia 72.4118
rfoot -22.1153 -1.88816
rtoes 16.1812
lfemur 3.65509 3.26053 -31.1359
ltibia 10.5333
lfoot -13.7693 -16.6016
ltoes -30.7948
1780
root 1.54512 16.8226 10.7368 -3.13925 -13.3323 26.0365
lowerback 7.03994 -1.64533 -2.56264
upperback -2.35374 -2.99636 -7.80406
thorax -6.75899 -1.58873 -6.45035
lowerneck 20.0979 20.6346 15.1363
upperneck -18.0736 27.7985 -31.6921
head -1.47461 16.0107 -12.8905
rclavicle 6.87795e-014 7.15625e-014
rhumerus 34.7718 45.6791 -38.9099
rradius 95.6863
rwrist -19.9578
rhand -19.6054 20.5909
rfingers 7.12502
rthumb 6.72072 -9.28242
lclavicle 6.87795e-014 7.15625e-014
lhumerus 29.7735 15.2388 25.1543
lradius 77.4148
lwrist -7.9654
lhand -54.0371 23.8623
lfingers 7.12502
lthumb -26.4589 52.0354
rfemur -34.5111 13.853 -14.7417
rtibia 73.4141
rfoot -21.3647 -1.4262
rtoes 16.6336
lfemur 4.44149 3.06709 -31.2037
ltibia 9.16276
lfoot -13.1079 -16.1806
ltoes -29.9118
1781
root 1.55158 16.8296 10.7452 -3.11832 -13.1538 25.9448
lowerback 7.29584 -1.68957 -2.5584
upperback -2.48074 -3.08232 -7.75318
thorax -7.04848 -1.63238 -6.3841
lowerneck 20.5324 20.6701 15.2122
upperneck -18.172 27.8947 -31.644
head -1.54598 16.077 -12.9438
rclavicle 6.19214e-014 -7.79236e-014
rhumerus 34.435 46.1166 -39.3489
rradius 95.582
rwrist -19.8724
rhand -20.2924 20.6084
rfingers 7.12502
rthumb 6.05751 -9.28502
lclavicle 6.19214e-014 -7.79236e-014
lhumerus 29.4849 15.1394 24.8956
lradius 77.4468
lwrist -7.91411
lhand -53.898 23.8914
lfingers 7.12502
lthumb -26.3257 52.0844
rfemur -35.0559 13.0639 -14.6762
rtibia 74.3238
rfoot -20.8888 -1.00907
rtoes 17.7807
lfemur 5.22103 2.7444 -31.1758
ltibia 7.72858
lfoot -12.2639 -15.846
ltoes -29.9613
